<svg id="_005-dribbble-logo" data-name="005-dribbble-logo" xmlns="http://www.w3.org/2000/svg" width="28.509" height="28.509" viewBox="0 0 28.509 28.509">
  <path id="Dribbble" d="M14.254,0A14.254,14.254,0,1,0,28.509,14.255,14.254,14.254,0,0,0,14.254,0Zm8.734,7.391a11.04,11.04,0,0,1,2.371,6.341,21.961,21.961,0,0,0-4.547-.508H20.8a18.384,18.384,0,0,0-3.222.283q-.368-.9-.745-1.732A17.314,17.314,0,0,0,22.987,7.391ZM14.254,3.134a11.048,11.048,0,0,1,6.935,2.444,14.433,14.433,0,0,1-5.461,3.9A39.143,39.143,0,0,0,11.89,3.4,10.884,10.884,0,0,1,14.254,3.134ZM9.342,4.293a34.117,34.117,0,0,1,3.968,6.048,32.136,32.136,0,0,1-8.783,1.233H4.352c-.344,0-.641-.005-.888-.013A11.156,11.156,0,0,1,9.342,4.293ZM3.133,14.255c0-.052,0-.105,0-.16.318.012.725.022,1.215.022h0a34.991,34.991,0,0,0,10.094-1.45q.323.707.64,1.472a17.6,17.6,0,0,0-6.261,3.693,18.97,18.97,0,0,0-3.067,3.578A11.049,11.049,0,0,1,3.133,14.255ZM14.254,25.376a11.044,11.044,0,0,1-6.606-2.192,16.04,16.04,0,0,1,2.579-3.176,15.125,15.125,0,0,1,5.779-3.5,54.858,54.858,0,0,1,2.2,8.138A11.062,11.062,0,0,1,14.254,25.376ZM20.548,23.4A57.189,57.189,0,0,0,18.5,15.928a16.019,16.019,0,0,1,2.281-.162h.032a19.753,19.753,0,0,1,4.365.524A11.117,11.117,0,0,1,20.548,23.4Z" fill="#80868b"/>
</svg>
