<svg id="_001-github-logo" data-name="001-github-logo" xmlns="http://www.w3.org/2000/svg" width="27.02" height="26.359" viewBox="0 0 27.02 26.359">
  <path id="Path_8" data-name="Path 8" d="M25.207,12.094a13.451,13.451,0,0,0-4.917-4.917A13.214,13.214,0,0,0,13.51,5.365,13.215,13.215,0,0,0,6.729,7.177a13.45,13.45,0,0,0-4.917,4.917A13.215,13.215,0,0,0,0,18.874a13.129,13.129,0,0,0,2.577,7.942A13.231,13.231,0,0,0,9.235,31.7a.787.787,0,0,0,.7-.123.688.688,0,0,0,.229-.528q0-.053-.009-.95t-.009-1.565l-.4.07a5.161,5.161,0,0,1-.976.062,7.438,7.438,0,0,1-1.223-.123,2.732,2.732,0,0,1-1.179-.527,2.232,2.232,0,0,1-.774-1.082l-.176-.4a4.4,4.4,0,0,0-.554-.9,2.123,2.123,0,0,0-.765-.668l-.123-.088a1.291,1.291,0,0,1-.229-.211.965.965,0,0,1-.158-.246q-.053-.123.088-.2a1.141,1.141,0,0,1,.51-.079l.352.053a2.568,2.568,0,0,1,.871.422,2.839,2.839,0,0,1,.853.914,3.1,3.1,0,0,0,.976,1.1A2.071,2.071,0,0,0,8.39,27a5,5,0,0,0,1-.088,3.5,3.5,0,0,0,.792-.264,2.85,2.85,0,0,1,.862-1.812,12.044,12.044,0,0,1-1.8-.317,7.179,7.179,0,0,1-1.653-.686,4.736,4.736,0,0,1-1.416-1.178,5.664,5.664,0,0,1-.923-1.847A8.783,8.783,0,0,1,4.89,18.17a5.131,5.131,0,0,1,1.39-3.624A4.729,4.729,0,0,1,6.4,10.958a2.465,2.465,0,0,1,1.513.237,10.577,10.577,0,0,1,1.469.677q.466.281.748.475a12.7,12.7,0,0,1,6.755,0l.668-.422a9.467,9.467,0,0,1,1.618-.774,2.305,2.305,0,0,1,1.425-.193,4.683,4.683,0,0,1,.14,3.588,5.132,5.132,0,0,1,1.39,3.624,8.882,8.882,0,0,1-.361,2.647,5.444,5.444,0,0,1-.932,1.847,4.918,4.918,0,0,1-1.425,1.17,7.193,7.193,0,0,1-1.654.686,12.032,12.032,0,0,1-1.8.317,3.133,3.133,0,0,1,.914,2.5v3.711a.7.7,0,0,0,.22.528.764.764,0,0,0,.695.123,13.23,13.23,0,0,0,6.658-4.881,13.132,13.132,0,0,0,2.577-7.942A13.226,13.226,0,0,0,25.207,12.094Z" transform="translate(0 -5.365)" fill="#80868b"/>
</svg>
