<svg id="_004-instagram" data-name="004-instagram" xmlns="http://www.w3.org/2000/svg" width="25.867" height="25.868" viewBox="0 0 25.867 25.868">
  <g id="Group_9" data-name="Group 9" transform="translate(0)">
    <g id="Group_8" data-name="Group 8">
      <path id="Path_10" data-name="Path 10" d="M17.784,0h-9.7A8.084,8.084,0,0,0,0,8.084v9.7a8.084,8.084,0,0,0,8.084,8.084h9.7a8.084,8.084,0,0,0,8.084-8.084v-9.7A8.084,8.084,0,0,0,17.784,0Zm5.659,17.784a5.665,5.665,0,0,1-5.659,5.659h-9.7a5.665,5.665,0,0,1-5.659-5.659v-9.7A5.665,5.665,0,0,1,8.084,2.425h9.7a5.665,5.665,0,0,1,5.659,5.659Z" transform="translate(0)" fill="#80868b"/>
    </g>
  </g>
  <g id="Group_11" data-name="Group 11" transform="translate(6.467 6.467)">
    <g id="Group_10" data-name="Group 10">
      <path id="Path_11" data-name="Path 11" d="M134.467,128a6.467,6.467,0,1,0,6.467,6.467A6.467,6.467,0,0,0,134.467,128Zm0,10.509a4.042,4.042,0,1,1,4.042-4.042A4.047,4.047,0,0,1,134.467,138.509Z" transform="translate(-128 -128)" fill="#80868b"/>
    </g>
  </g>
  <g id="Group_13" data-name="Group 13" transform="translate(19.024 5.12)">
    <g id="Group_12" data-name="Group 12">
      <ellipse id="Ellipse_8" data-name="Ellipse 8" cx="0.862" cy="0.862" rx="0.862" ry="0.862" fill="#80868b"/>
    </g>
  </g>
</svg>
