<svg xmlns="http://www.w3.org/2000/svg" width="5409" height="80.001" viewBox="0 0 5409 80.001">
  <g id="Group_59" data-name="Group 59" transform="translate(6205 381)">
    <rect id="Rectangle_31" data-name="Rectangle 31" width="5409" height="80" transform="translate(-6205 -381)" fill="#eee"/>
    <path id="Intersection_1" data-name="Intersection 1" d="M4089.6,189.6l82.843-80h148.273l-82.843,80Zm-263,0,82.843-80h148.275l-82.843,80Zm-263,0,82.843-80h148.275l-82.843,80Zm-263,0,82.843-80h148.273l-82.843,80Zm-263,0,82.843-80h148.274l-82.843,80Zm-263,0,82.843-80h148.275l-82.843,80Zm-263,0,82.842-80h148.276l-82.843,80Zm-263,0,82.843-80h148.275l-82.843,80Zm-263,0,82.843-80h148.275l-82.843,80Zm-263,0,82.843-80h148.274l-82.843,80Zm-263,0,82.842-80H1690.72l-82.843,80Zm-263,0,82.843-80h148.275l-82.843,80Zm-263,0,82.843-80h148.275l-82.843,80Zm-263,0,82.843-80H901.718l-82.843,80Zm-263,0,82.842-80H638.718l-82.843,80Zm-263,0,82.843-80H375.719l-82.843,80Z" transform="translate(-6205 -490.596)" fill="#fd0"/>
  </g>
</svg>
