<svg id="_002-linkedin-logo" data-name="002-linkedin-logo" xmlns="http://www.w3.org/2000/svg" width="28.433" height="27.17" viewBox="0 0 28.433 27.17">
  <path id="LinkedIn" d="M28.433,26.216V36.728H22.339V26.92c0-2.464-.881-4.145-3.087-4.145A3.335,3.335,0,0,0,16.125,25a4.17,4.17,0,0,0-.2,1.486V36.728h-6.1s.082-16.612,0-18.333h6.1v2.6c-.012.019-.028.04-.04.059h.04v-.059a6.053,6.053,0,0,1,5.494-3.029C25.427,17.964,28.433,20.585,28.433,26.216ZM3.45,9.558a3.177,3.177,0,1,0-.081,6.336h.041a3.178,3.178,0,1,0,.04-6.336ZM.362,36.728H6.456V18.4H.362Z" transform="translate(0 -9.558)" fill="#80868b"/>
</svg>
