<svg id="_003-twitter" data-name="003-twitter" xmlns="http://www.w3.org/2000/svg" width="29.577" height="24.031" viewBox="0 0 29.577 24.031">
  <g id="Group_7" data-name="Group 7" transform="translate(0)">
    <path id="Path_9" data-name="Path 9" d="M29.577,50.845a12.642,12.642,0,0,1-3.494.958,6.029,6.029,0,0,0,2.667-3.351,12.117,12.117,0,0,1-3.845,1.468,6.063,6.063,0,0,0-10.489,4.146,6.244,6.244,0,0,0,.14,1.383,17.163,17.163,0,0,1-12.5-6.342,6.065,6.065,0,0,0,1.863,8.1,5.988,5.988,0,0,1-2.74-.747v.067a6.091,6.091,0,0,0,4.858,5.958,6.052,6.052,0,0,1-1.59.2,5.361,5.361,0,0,1-1.148-.1,6.121,6.121,0,0,0,5.666,4.224,12.183,12.183,0,0,1-7.518,2.586A11.358,11.358,0,0,1,0,69.31a17.07,17.07,0,0,0,9.3,2.721c11.158,0,17.258-9.243,17.258-17.254,0-.268-.009-.527-.022-.784A12.1,12.1,0,0,0,29.577,50.845Z" transform="translate(0 -48)" fill="#80868b"/>
  </g>
</svg>
