<svg xmlns="http://www.w3.org/2000/svg" width="370.357" height="479.205" viewBox="0 0 370.357 479.205">
  <g id="Group_60" data-name="Group 60" transform="translate(-223.625 -209)">
    <path id="Path_2" data-name="Path 2" d="M132.656-163.321v101.6a5.828,5.828,0,0,0,1.858,4.46A6.465,6.465,0,0,0,139.1-55.53v1.487H87.31V-55.53a6.038,6.038,0,0,0,4.46-1.735,6.038,6.038,0,0,0,1.735-4.46V-139.78H55.344v78.056a6.038,6.038,0,0,0,1.735,4.46,6.038,6.038,0,0,0,4.46,1.735v1.487H9.75V-55.53a6.038,6.038,0,0,0,4.46-1.735,6.038,6.038,0,0,0,1.735-4.46V-219.818a6.038,6.038,0,0,0-1.735-4.46,6.038,6.038,0,0,0-4.46-1.735V-227.5H61.539v1.487a6.038,6.038,0,0,0-4.46,1.735,6.038,6.038,0,0,0-1.735,4.46v78.3H93.5v-78.3a6.038,6.038,0,0,0-1.735-4.46,6.038,6.038,0,0,0-4.46-1.735V-227.5H139.1v1.487a6.465,6.465,0,0,0-4.584,1.735,5.828,5.828,0,0,0-1.858,4.46v56.5Z" transform="translate(224.238 438)" fill="none" stroke="#fd0" stroke-width="3"/>
    <path id="Path_5" data-name="Path 5" d="M64.622-160.225a55.267,55.267,0,0,1,23.541,4.832,53.891,53.891,0,0,1,17.717,13.009,57.581,57.581,0,0,1,11.275,19.328,70.485,70.485,0,0,1,3.965,23.788,70.485,70.485,0,0,1-3.965,23.788A58.985,58.985,0,0,1,105.88-56.027,53.083,53.083,0,0,1,88.163-42.894a55.267,55.267,0,0,1-23.541,4.832,56.1,56.1,0,0,1-23.664-4.832A52.753,52.753,0,0,1,23.117-56.027,57.318,57.318,0,0,1,11.966-75.479,72.544,72.544,0,0,1,8.125-99.267a72.544,72.544,0,0,1,3.841-23.788,55.978,55.978,0,0,1,11.151-19.328,53.549,53.549,0,0,1,17.841-13.009A56.105,56.105,0,0,1,64.622-160.225Zm17.593,45.1q0-22.549-4.336-32.833T64.622-158.243q-8.921,0-13.257,10.284t-4.336,32.833v31.966q0,22.549,4.336,32.833T64.622-40.044q8.921,0,13.257-10.284t4.336-32.833v-31.966Z" transform="translate(361.102 467.003)" fill="none" stroke="#fd0" stroke-width="3"/>
    <path id="Path_6" data-name="Path 6" d="M96.588-157.731a19.539,19.539,0,0,1,9.045,12.018,18.187,18.187,0,0,1-2.106,14.744,19.338,19.338,0,0,1-12.018,9.292,18.187,18.187,0,0,1-14.744-2.106A18.9,18.9,0,0,1,67.6-135.925a17.109,17.109,0,0,1-.743-6.195,35.161,35.161,0,0,1,.743-4.832,24.8,24.8,0,0,0,.619-3.717,2.864,2.864,0,0,0-1.115-2.6,3.214,3.214,0,0,0-2.85-.743A14.324,14.324,0,0,0,60.41-152.9a28.87,28.87,0,0,0-4.089,2.23,37.291,37.291,0,0,0-3.593,2.6,33.944,33.944,0,0,1,.991,9.416v92.675a6.038,6.038,0,0,0,1.735,4.46,6.038,6.038,0,0,0,4.46,1.735v1.487H8.125V-39.78a6.038,6.038,0,0,0,4.46-1.735,6.038,6.038,0,0,0,1.735-4.46v-106.8a6.038,6.038,0,0,0-1.735-4.46,6.038,6.038,0,0,0-4.46-1.735v-1.487H35.878q13.877,0,16.6,10.9a74.735,74.735,0,0,1,8.053-5.08,56.543,56.543,0,0,1,11.151-4.708A42.93,42.93,0,0,1,84.322-161.2,23.177,23.177,0,0,1,96.588-157.731Z" transform="translate(486.144 500.02)" fill="none" stroke="#fd0" stroke-width="3"/>
    <path id="Path_3" data-name="Path 3" d="M83.455-160.225a39.131,39.131,0,0,1,17.965,4.213,41.889,41.889,0,0,1,14.372,12.142,60.764,60.764,0,0,1,9.54,19.08A85,85,0,0,1,128.8-99.515a85.02,85.02,0,0,1-3.717,26.142,56.822,56.822,0,0,1-10.407,19.452A42.512,42.512,0,0,1,98.694-42.027a46.217,46.217,0,0,1-20.443,3.469A30.674,30.674,0,0,1,64-42.894a38.751,38.751,0,0,1-10.283-8.8V-8.574q0,11.894-3.965,16.85T35.878,13.232H8.125V11.745a6.038,6.038,0,0,0,4.46-1.735A6.038,6.038,0,0,0,14.32,5.55V-152.543A6.038,6.038,0,0,0,12.585-157a6.038,6.038,0,0,0-4.46-1.735v-1.487H35.878q7.186,0,11.027,2.478t5.575,8.177q2.23-1.487,5.328-3.221t6.938-3.469a47.153,47.153,0,0,1,8.549-2.85A44.017,44.017,0,0,1,83.455-160.225ZM68.339-43.761Q78.251-42.522,84.074-56.4T89.4-99.515a162.61,162.61,0,0,0-1.982-24.408,66.77,66.77,0,0,0-4.584-16.231q-2.85-6.195-6.69-9.045a16.881,16.881,0,0,0-8.3-3.345,19.709,19.709,0,0,0-8.3,1.239,35.067,35.067,0,0,0-6.814,3.469,33.944,33.944,0,0,1,.991,9.416v84.25a29.686,29.686,0,0,0,6.938,7.062A17.221,17.221,0,0,0,68.339-43.761Z" transform="translate(217 556.209)" fill="none" stroke="#fd0" stroke-width="3"/>
    <path id="Path_4" data-name="Path 4" d="M92.871-91.586a18.806,18.806,0,0,1,13.753,5.823,18.806,18.806,0,0,1,5.823,13.753,24.316,24.316,0,0,1-3.841,13.257A39.629,39.629,0,0,1,98.322-47.974a49.471,49.471,0,0,1-15.116,7.31,64.374,64.374,0,0,1-18.585,2.6,56.1,56.1,0,0,1-23.664-4.832A52.753,52.753,0,0,1,23.117-56.027,57.318,57.318,0,0,1,11.966-75.479,72.544,72.544,0,0,1,8.125-99.267a72.544,72.544,0,0,1,3.841-23.788,55.978,55.978,0,0,1,11.151-19.328,53.549,53.549,0,0,1,17.841-13.009,56.105,56.105,0,0,1,23.664-4.832,53.816,53.816,0,0,1,21.806,4.336,58.863,58.863,0,0,1,17.1,11.151,49.671,49.671,0,0,1,11.151,15.487,40.9,40.9,0,0,1,3.965,17.1H47.029v28.992a132.94,132.94,0,0,0,1.363,20.939A43.491,43.491,0,0,0,52.48-48.841a16.478,16.478,0,0,0,6.814,7.186,21.136,21.136,0,0,0,9.788,2.106,28.413,28.413,0,0,0,9.045-1.735,9.036,9.036,0,0,0,6.319-6.443,6.276,6.276,0,0,0-1.363-5.823q-2.106-2.354-4.089-4.336A19.3,19.3,0,0,1,73.047-72.01a18.806,18.806,0,0,1,5.823-13.753A19.089,19.089,0,0,1,92.871-91.586ZM59.419-157.251Q52.976-153.782,50-144.118t-2.974,28.992v1.735H82.216q0-6.443-.248-13.133a75.662,75.662,0,0,0-1.487-12.638,37.857,37.857,0,0,0-3.841-10.655,19.716,19.716,0,0,0-7.062-7.434q-.5-.248-1.735-.743a8.8,8.8,0,0,0-3.221-.5,9.852,9.852,0,0,0-3.345.5Q59.914-157.5,59.419-157.251Z" transform="translate(329.842 631.692)" fill="none" stroke="#fd0" stroke-width="3"/>
    <path id="Path_1" data-name="Path 1" d="M84.354-56.917,11.845-226.844q-2.23-4.213-6.195-4.213V-232.3H54.713v1.239q-3.965,0-3.965,3.965A4.253,4.253,0,0,0,51-225.357l52.685,123.589,22.054-51.294a14.2,14.2,0,0,0,1.487-6.443,16.018,16.018,0,0,0-4.832-11.77,16.018,16.018,0,0,0-11.77-4.832v-1.239h43.364v1.239a22.37,22.37,0,0,0-15.115,5.575,38.063,38.063,0,0,0-9.912,13.257L64.778-7.606A35.74,35.74,0,0,1,54.246,6.519,25.184,25.184,0,0,1,38.016,11.97,24.437,24.437,0,0,1,26.122,9,33.108,33.108,0,0,1,16.458.943a38.013,38.013,0,0,1-6.567-11.77A43,43,0,0,1,7.537-25.2a19.009,19.009,0,0,1,5.7-13.753,18.684,18.684,0,0,1,13.877-5.823,18.684,18.684,0,0,1,13.877,5.823,19.009,19.009,0,0,1,5.7,13.753q0,9.416-6.443,14.62L38.511-8.845A6.614,6.614,0,0,0,37.272-7.11a11.532,11.532,0,0,0-2.478,5.947,11.167,11.167,0,0,0,.743,5.328,9.637,9.637,0,0,0,3.1,3.965A7.389,7.389,0,0,0,43.22,9.74a13.21,13.21,0,0,0,6.69-1.858,27.945,27.945,0,0,0,5.823-4.46,33.815,33.815,0,0,0,4.584-5.7A46.99,46.99,0,0,0,63.539-8.1Z" transform="translate(421.161 674.735)" fill="none" stroke="#fd0" stroke-width="3"/>
  </g>
</svg>
