<svg xmlns="http://www.w3.org/2000/svg" width="113.674" height="127.944" viewBox="0 0 113.674 127.944">
  <g id="Group_62" data-name="Group 62" transform="translate(4148.416 -2508.633)">
    <g id="Group_61" data-name="Group 61">
      <g id="_002-laurel" data-name="002-laurel" transform="translate(-4147.739 2509.322)">
        <g id="Group_17" data-name="Group 17" transform="translate(0 0)">
          <path id="Path_26" data-name="Path 26" d="M89,101.665a.018.018,0,0,1,.007-.013,51.741,51.741,0,0,0,3.571-7.088,9.983,9.983,0,0,0,3.232.556c9.923,0,15.316-16.074,15.316-16.074-1.058-.088-2.065-.129-3.018-.129-5.514,0-9.377,1.377-12.08,3.274a63.44,63.44,0,0,0,.777-9.377c10.988-1.75,8.2-19.748,8.2-19.748-4.612,1.921-7.536,4.261-9.347,6.651a64.747,64.747,0,0,0-1.553-6.654c2.676-9.56-12.881-15.275-12.881-15.275-1.373,12.363,4.958,16.437,8.746,17.759a59.213,59.213,0,0,1,2,11.448,38.313,38.313,0,0,0-10.958-7.939c-3.229,16.679,6.383,21.6,10.361,22.9q-.153.9-.329,1.774A50.135,50.135,0,0,1,87.9,93.757c-1.516-6.892-6.5-13.316-6.5-13.316-10.724,13.547-4.775,22.6-1.635,25.936a52.51,52.51,0,0,1-8.4,7.495c1.655-7.4-1.333-16.53-1.333-16.53-13.993,8.733-12.318,18.727-10.54,23.275-1.268.57-2.577,1.109-3.92,1.628q-2.416-.931-4.677-1.97c1.323-4.779,1.838-14.634-12.572-21.966a39.854,39.854,0,0,0-.492,14.095,51.359,51.359,0,0,1-6.454-6.027c3.14-3.334,9.086-12.389-1.635-25.936,0,0-4.985,6.425-6.5,13.313a49.959,49.959,0,0,1-3.13-9.906c-.129-.624-.244-1.255-.353-1.892,3.982-1.3,13.589-6.222,10.364-22.9a38.306,38.306,0,0,0-10.961,7.939,59.39,59.39,0,0,1,2-11.448c3.788-1.324,10.117-5.4,8.743-17.759,0,0-15.573,5.72-12.877,15.289a64.648,64.648,0,0,0-1.553,6.644c-1.814-2.391-4.738-4.733-9.35-6.654,0,0-2.784,18,8.2,19.748a63.464,63.464,0,0,0,.777,9.377c-2.7-1.9-6.566-3.274-12.08-3.274-.953,0-1.96.041-3.018.129,0,0,5.392,16.074,15.316,16.074a9.99,9.99,0,0,0,3.232-.556,51.729,51.729,0,0,0,3.571,7.088.017.017,0,0,1,.007.013,21,21,0,0,0-5.182-.617,34.1,34.1,0,0,0-12.172,2.537s9.8,14.085,20.349,14.085a11.969,11.969,0,0,0,7.98-3.147A67.442,67.442,0,0,0,48.986,124.5a120.981,120.981,0,0,1-14.963,3.449l.766,4.565a117.858,117.858,0,0,0,20.776-5.324,117.858,117.858,0,0,0,20.776,5.324l.766-4.565A121,121,0,0,1,62.144,124.5a67.443,67.443,0,0,0,15.886-9.978,11.963,11.963,0,0,0,7.98,3.147c10.544,0,20.349-14.085,20.349-14.085a34.1,34.1,0,0,0-12.172-2.537A21,21,0,0,0,89,101.665Zm9.167-37.1a9.821,9.821,0,0,1,2.33-3.347,11.078,11.078,0,0,1-2.014,5.718,3.67,3.67,0,0,1-.926.8A8.472,8.472,0,0,1,98.171,64.568ZM96.306,88.344a11.432,11.432,0,0,1,7.386-4.4c-.156.258-.315.509-.478.763a17.824,17.824,0,0,1-3.748,4.31,5.92,5.92,0,0,1-3.653,1.469,4.542,4.542,0,0,1-.668-.051A10.785,10.785,0,0,1,96.306,88.344Zm-8.478-39.7a8.843,8.843,0,0,1-1.475-2.754,9.231,9.231,0,0,1,3.269,3.954,3.744,3.744,0,0,1,.129.5A7.766,7.766,0,0,1,87.827,48.644ZM90.89,76.727a10.552,10.552,0,0,1-3.758-3.332,12.984,12.984,0,0,1-2.086-6.462c3.266,2.472,5.348,5.048,5.888,7.28A4.761,4.761,0,0,1,90.89,76.727Zm-70.7-2.5c.536-2.232,2.622-4.816,5.891-7.29A12.988,12.988,0,0,1,24,73.394a10.556,10.556,0,0,1-3.758,3.332A4.761,4.761,0,0,1,20.192,74.222ZM21.5,49.853a9.242,9.242,0,0,1,3.269-3.963A8.744,8.744,0,0,1,23.3,48.642a7.74,7.74,0,0,1-1.923,1.7A4.168,4.168,0,0,1,21.5,49.853ZM12.65,66.946a11.071,11.071,0,0,1-2.021-5.725,9.821,9.821,0,0,1,2.33,3.347,8.468,8.468,0,0,1,.61,3.166A3.618,3.618,0,0,1,12.65,66.946Zm2.666,23.545a5.919,5.919,0,0,1-3.653-1.469,17.824,17.824,0,0,1-3.748-4.31q-.244-.382-.478-.763a11.433,11.433,0,0,1,7.386,4.4,10.979,10.979,0,0,1,1.16,2.1A4.541,4.541,0,0,1,15.315,90.491Zm9.8,22.549c-3.083,0-6.834-1.967-10.849-5.684-.471-.438-.919-.875-1.343-1.306a23.158,23.158,0,0,1,4.015-.373,14,14,0,0,1,10.483,4.185,14.99,14.99,0,0,1,1.591,1.957A6.987,6.987,0,0,1,25.12,113.04Zm6.034-16.353a11.234,11.234,0,0,1-2.052,5.168,5.23,5.23,0,0,1-1.465-2.561c-.6-2.414.139-5.945,2.082-9.947.024-.051.048-.1.075-.156A13.976,13.976,0,0,1,31.154,96.687Zm15.512,21.322a5.431,5.431,0,0,1-2.4-1.719c-1.882-2.364-2.33-6.4-2.242-10.045a13.938,13.938,0,0,1,4.344,6.22A11.23,11.23,0,0,1,46.666,118.009Zm18.989-2.181a5.425,5.425,0,0,1-2.248,1.926,11.46,11.46,0,0,1-.224-5.457,13.944,13.944,0,0,1,3.836-6.729C67.431,109.208,67.337,113.3,65.654,115.828ZM79.976,96.687a13.979,13.979,0,0,1,1.36-7.5l0,.007c1.994,4.056,2.757,7.638,2.154,10.086a5.2,5.2,0,0,1-1.465,2.571A11.236,11.236,0,0,1,79.976,96.687Zm17,10.557a28.446,28.446,0,0,1-5.569,4.168,11.47,11.47,0,0,1-5.4,1.628,6.989,6.989,0,0,1-3.9-1.221,14.739,14.739,0,0,1,1.591-1.957,14,14,0,0,1,10.483-4.182,23.141,23.141,0,0,1,4.015.37C97.815,106.447,97.4,106.847,96.977,107.244Z" transform="translate(0 -37.788)" fill="none" stroke="#fd0" stroke-width="1"/>
        </g>
      </g>
      <path id="Path_34" data-name="Path 34" d="M10.236-.823,13.67-14.039h.294L17.352-.823ZM20.674,12.168h6.936l-9.783-32.6H10.236L.453,12.168H6.869L8.948,4.193H18.64Z" transform="translate(-4107.582 2545.02)" stroke="#fd0" stroke-width="1"/>
    </g>
    <path id="Path_36" data-name="Path 36" d="M9.729,0V-1.239H6.583V-13.28H1.854v1.239H5.089v10.8H1.828V0ZM20.29.176a3.9,3.9,0,0,0,4.131-4.219V-5.484A3.9,3.9,0,0,0,20.29-9.7,3.9,3.9,0,0,0,16.16-5.484v1.441A3.9,3.9,0,0,0,20.29.176Zm0-8.561c1.635,0,2.654,1.16,2.654,3.032v1.169c0,1.881-1.02,3.032-2.654,3.032S17.636-2.3,17.636-4.184V-5.353C17.636-7.225,18.656-8.385,20.29-8.385ZM34.051.167a2.931,2.931,0,0,0,2.883-1.591h.149V.009h1.424v-6.53c0-1.986-1.283-3.129-3.524-3.129-1.951,0-3.428,1.046-3.6,2.575h1.468a1.994,1.994,0,0,1,2.118-1.283c1.327,0,2.057.659,2.057,1.854v.861L34.4-5.511c-2.171.114-3.384,1.116-3.384,2.8A2.789,2.789,0,0,0,34.051.167Zm.431-1.31c-1.2,0-1.951-.615-1.951-1.617s.7-1.564,2.039-1.626L37.021-4.5v1.125A2.351,2.351,0,0,1,34.481-1.143ZM47-5.467A2.567,2.567,0,0,1,49.586-8.35c1.564,0,2.575,1.125,2.575,2.883V-4.1c0,1.767-1.011,2.892-2.575,2.892S47-2.338,47-4.1ZM52.17-1.459V0h1.468V-13.28H52.117V-8.06h-.158a2.788,2.788,0,0,0-2.812-1.635C46.941-9.694,45.5-8.1,45.5-5.66v1.775c0,2.452,1.441,4.043,3.647,4.043A2.913,2.913,0,0,0,52-1.459ZM64.638-11.874a1.209,1.209,0,0,0,1.239-1.23,1.207,1.207,0,0,0-1.239-1.222A1.207,1.207,0,0,0,63.4-13.1,1.209,1.209,0,0,0,64.638-11.874ZM68.637,0V-1.239H65.482v-8.3h-4.72V-8.3h3.243v7.058h-3.27V0ZM75.3,0H76.79V-5.616a2.536,2.536,0,0,1,2.628-2.725c1.485,0,2.188.809,2.188,2.531V0H83.1V-6.187c0-2.285-1.125-3.524-3.2-3.524a3.1,3.1,0,0,0-3.05,1.854h-.123V-9.536H75.3Zm15.79-4.157v-1.31a2.579,2.579,0,0,1,2.6-2.883,2.567,2.567,0,0,1,2.584,2.883v1.31c0,1.758-1.011,2.892-2.584,2.892A2.587,2.587,0,0,1,91.086-4.157Zm2.558,7.734c2.584,0,4.113-1.336,4.113-3.577V-9.536H96.281V-8.06h-.167a2.85,2.85,0,0,0-2.839-1.635c-2.232,0-3.691,1.582-3.691,4.034v1.714c0,2.443,1.45,4.034,3.656,4.034A2.91,2.91,0,0,0,96.1-1.521h.158V-.035c0,1.529-.923,2.373-2.593,2.373-1.274,0-2.232-.519-2.426-1.31H89.768C89.961,2.61,91.438,3.577,93.644,3.577ZM105.093.053c.686,0,1.055-.527,1.055-1.494s-.369-1.5-1.055-1.5-1.046.536-1.046,1.5S104.416.053,105.093.053Zm3.56,0c.677,0,1.055-.527,1.055-1.494s-.378-1.5-1.055-1.5-1.055.536-1.055,1.5S107.975.053,108.652.053Zm3.56,0c.677,0,1.046-.527,1.046-1.494s-.369-1.5-1.046-1.5-1.055.536-1.055,1.5S111.526.053,112.212.053Z" transform="translate(-4148 2633)" fill="#fd0" opacity="0.566"/>
  </g>
</svg>
