<svg xmlns="http://www.w3.org/2000/svg" width="78.303" height="21.093" viewBox="0 0 78.303 21.093">
  <path id="Path_35" data-name="Path 35" d="M11.035,0V-2.578h-3V-14.941H1.611v2.578H4.59v9.785H1.328V0Zm4.79.254c3.223,0,5.234-1.855,5.234-4.834V-6.289c0-2.979-2.012-4.834-5.234-4.834s-5.234,1.855-5.234,4.834V-4.58C10.591-1.6,12.6.254,15.825.254Zm0-8.77c1.143,0,1.855.9,1.855,2.314v1.533c0,1.416-.713,2.314-1.855,2.314s-1.855-.9-1.855-2.314V-6.2C13.969-7.617,14.682-8.516,15.825-8.516ZM23.72.166a3.309,3.309,0,0,0,2.959-1.514h.293V0h3.262V-7.344c0-2.432-1.641-3.779-4.619-3.779-2.842,0-4.727,1.309-4.922,3.418h3.35A1.438,1.438,0,0,1,25.5-8.584c.82,0,1.338.439,1.338,1.133v.811l-2.227.166C21.777-6.26,20.3-5.107,20.3-3.125A3.182,3.182,0,0,0,23.72.166Zm1.25-2.549c-.791,0-1.3-.391-1.3-1.006,0-.674.527-1.055,1.592-1.143l1.572-.127v.5A1.706,1.706,0,0,1,24.97-2.383Zm8.257-4.082a1.659,1.659,0,0,1,1.738-1.895A1.659,1.659,0,0,1,36.7-6.465v1.934a1.659,1.659,0,0,1-1.738,1.895,1.659,1.659,0,0,1-1.738-1.895Zm3.408,4.473V0h3.6V-14.941H36.615v6.016H36.4a2.645,2.645,0,0,0-2.881-2.129c-2.48,0-3.828,1.66-3.828,4.717v1.787c0,3.057,1.348,4.717,3.828,4.717a2.609,2.609,0,0,0,2.9-2.158Zm8.257-10.84c1.338,0,2.178-.723,2.178-1.885s-.84-1.885-2.178-1.885-2.178.723-2.178,1.885S43.554-12.832,44.891-12.832ZM49.608,0V-2.578H46.552v-8.291H40.184v2.578h3.037v5.713H39.9V0Zm-.366,0h3.447V-6.211c0-1.3.664-2.09,1.748-2.09,1.123,0,1.66.664,1.66,2.051V0h3.457V-7.021c0-2.676-1.27-4.1-3.633-4.1A3.151,3.151,0,0,0,52.787-9.1H52.6v-1.768H49.242ZM62.02-4.854V-6.465a1.729,1.729,0,0,1,1.836-1.895,1.729,1.729,0,0,1,1.836,1.895v1.611a1.729,1.729,0,0,1-1.836,1.895A1.729,1.729,0,0,1,62.02-4.854Zm1.729,8.945c3.359,0,5.479-1.592,5.479-4.111v-10.85H65.858v1.943h-.215a2.938,2.938,0,0,0-3.086-2.129c-2.656,0-4.082,1.65-4.082,4.717v1.465c0,3.027,1.387,4.717,3.887,4.717a3.013,3.013,0,0,0,3.193-2.158h.215V.078c0,1.143-.664,1.719-1.973,1.719-1.016,0-1.719-.361-1.865-.957H58.573C58.719,2.852,60.692,4.092,63.748,4.092ZM69.612.283c1.006,0,1.475-.615,1.475-1.934s-.469-1.934-1.475-1.934-1.475.615-1.475,1.934S68.606.283,69.612.283Zm4.072,0c1.006,0,1.475-.615,1.475-1.934s-.469-1.934-1.475-1.934S72.21-2.969,72.21-1.65,72.679.283,73.685.283Zm4.072,0c1.006,0,1.475-.615,1.475-1.934s-.469-1.934-1.475-1.934-1.475.615-1.475,1.934S76.751.283,77.757.283Z" transform="translate(-1.128 16.802)" stroke="#fd0" stroke-linecap="round" stroke-width="0.4"/>
</svg>
